<svg fill="none" xmlns="http://www.w3.org/2000/svg" viewBox="0 0 126 41">
    <g clip-path="url(#clip0)">
        <path d="M0 0l23.11 40.03L46.23 0h-9.25L23.11 24.02 9.13 0H0z" fill="#FFC576"/>
        <path d="M37.35.5L23.11 24.8 8.87.5h8.14l5.74 9 .43.67.42-.67 5.62-9h8.13z" stroke="#FFC576"/>
        <path d="M69.65 10.81c1.05 0 1.92.31 2.6.93.7.6 1.05 1.41 1.05 2.45 0 .8-.22 1.5-.65 2.1-.43.58-1 1.05-1.72 1.4-.64.3-1.87.73-3.7 1.3.93.4 1.61.97 2.05 1.72a5.15 5.15 0 01-.25 5.45 6.64 6.64 0 01-2.65 2.23 9.3 9.3 0 01-4.05.82c-1.45 0-2.8-.25-4.05-.75a7.2 7.2 0 01-2.95-2.17 5.25 5.25 0 01-1.1-3.3c0-1.1.26-2.03.8-2.78a5.7 5.7 0 011.87-1.72c.7-.4 1.35-.68 1.95-.83a4.45 4.45 0 01-1.87-1.4 3.02 3.02 0 01-.65-1.82c0-.55.15-1.06.47-1.53.33-.48.82-.86 1.45-1.15.65-.3 1.42-.45 2.3-.45 1.12 0 1.98.25 2.6.75.3.25.53.54.68.85.16.3.25.6.25.88 0 .4-.15.72-.43.97-.28.24-.6.35-.97.35-.35 0-.66-.1-.93-.32a1.2 1.2 0 01-.37-.93c0-.36.12-.67.37-.92.25-.27.57-.42.95-.45-.08-.22-.3-.4-.65-.55a2.78 2.78 0 00-1.25-.25c-.87 0-1.57.26-2.1.8-.53.51-.8 1.24-.8 2.17 0 1.12.43 2.07 1.28 2.85a9.3 9.3 0 011.55-.15c.3 0 .54.05.72.15.18.1.28.24.28.43a.4.4 0 01-.2.35.85.85 0 01-.5.12c-.27 0-.55-.05-.83-.15-.28-.1-.62-.23-1-.4-2.17.65-3.25 2.02-3.25 4.1 0 1.12.3 2.09.88 2.9a5.54 5.54 0 002.4 1.88c1.01.41 2.15.62 3.42.62 1.18 0 2.28-.18 3.28-.55a5.74 5.74 0 002.4-1.6c.6-.7.9-1.5.9-2.42 0-.67-.18-1.34-.53-2.03a3.56 3.56 0 00-2-1.6c-1.3.4-2.26.72-2.87.95-.7.27-1.25.58-1.63.93-.38.33-.57.75-.57 1.25 0 .6.24 1.08.72 1.45a2.62 2.62 0 002.5.4c.33-.1.53-.24.58-.4-.32-.07-.6-.2-.83-.4-.23-.2-.35-.5-.35-.88 0-.4.13-.71.38-.95.26-.23.6-.35 1-.35s.71.13.95.38c.25.25.37.57.37.97 0 .67-.3 1.2-.92 1.58a3.8 3.8 0 01-4.23-.15c-.62-.5-.92-1.24-.92-2.2 0-.85.28-1.57.85-2.15a6.6 6.6 0 012.6-1.5l1.77-.53c1-.28 1.83-.53 2.5-.75.67-.21 1.28-.45 1.83-.7.8-.36 1.35-.74 1.67-1.12.32-.39.48-.81.48-1.28 0-.7-.3-1.29-.88-1.77a2.96 2.96 0 00-2.02-.75c-.42 0-.67.07-.75.22.21.1.38.27.5.5.13.22.2.44.2.65 0 .35-.15.64-.43.88-.27.23-.6.35-.97.35-.35 0-.66-.11-.93-.33-.27-.21-.4-.52-.4-.92 0-.6.28-1.04.83-1.3.56-.29 1.2-.43 1.92-.43z" fill="#FFC576"/>
        <path fill-rule="evenodd" clip-rule="evenodd" d="M122.9 22.78c.99-.9 1.4-1.77 1.4-2.57 0-.8-.41-1.67-1.4-2.57-1-.9-2.48-1.76-4.4-2.5-3.84-1.5-9.22-2.43-15.2-2.43-5.98 0-11.36.94-15.2 2.42-1.92.75-3.4 1.6-4.4 2.51-.99.9-1.4 1.77-1.4 2.57 0 .8.41 1.67 1.4 2.57 1 .9 2.48 1.77 4.4 2.5 3.84 1.5 9.22 2.43 15.2 2.43 5.98 0 11.36-.94 15.2-2.42 1.92-.74 3.4-1.6 4.4-2.5zm-19.6 5.93c12.15 0 22-3.8 22-8.5s-9.85-8.5-22-8.5-22 3.8-22 8.5 9.85 8.5 22 8.5z" fill="#FFC576"/>
        <path fill-rule="evenodd" clip-rule="evenodd" d="M115.69 4.33c-.3-1.31-.84-2.1-1.53-2.5-.69-.4-1.65-.48-2.93-.07-1.27.4-2.76 1.26-4.37 2.55-3.2 2.59-6.7 6.77-9.7 11.95-2.99 5.19-4.86 10.3-5.5 14.37a14.15 14.15 0 00-.02 5.07c.29 1.3.83 2.1 1.52 2.5.7.4 1.65.47 2.93.07 1.28-.4 2.77-1.26 4.37-2.56 3.2-2.58 6.7-6.76 9.7-11.95 2.99-5.18 4.86-10.3 5.5-14.37.31-2.04.31-3.75.03-5.06zm-4.67 19.93c6.08-10.52 7.7-20.95 3.64-23.3-4.06-2.35-12.28 4.28-18.36 14.8-6.07 10.53-7.7 20.96-3.64 23.3 4.07 2.35 12.29-4.27 18.36-14.8z" fill="#FFC576"/>
        <path fill-rule="evenodd" clip-rule="evenodd" d="M96.09 1.76c-1.28-.4-2.24-.33-2.93.07s-1.23 1.19-1.52 2.5c-.3 1.3-.3 3.02.03 5.06.63 4.07 2.5 9.2 5.5 14.37 2.99 5.19 6.49 9.37 9.7 11.95 1.6 1.3 3.09 2.15 4.36 2.56 1.28.4 2.24.33 2.93-.07.7-.4 1.24-1.2 1.53-2.5.28-1.31.28-3.03-.03-5.07-.64-4.06-2.51-9.18-5.5-14.37-3-5.18-6.5-9.36-9.7-11.95-1.6-1.29-3.1-2.15-4.37-2.55zm14.93 14C104.95 5.24 96.72-1.39 92.66.96c-4.06 2.35-2.43 12.78 3.64 23.3 6.08 10.53 14.3 17.15 18.36 14.8 4.07-2.34 2.44-12.77-3.64-23.3z" fill="#FFC576"/>
        <path d="M106.3 20.21a2.5 2.5 0 11-5 0 2.5 2.5 0 015 0z" fill="#FFC576"/>
    </g>
    <defs>
        <clipPath id="clip0">
            <path fill="#fff" d="M0 0h125.3v40.03H0z"/>
        </clipPath>
    </defs>
</svg>
